<?xml version="1.0" encoding="UTF-8"?>
<svg id="Layer_1" data-name="Layer 1" xmlns="http://www.w3.org/2000/svg" viewBox="0 0 279.83 311.07">
  <path d="M129.68,0v311.07l-64.01-35.9v-13.82s20.94-12.59,20.94-12.59l.21-59.67-2.87-4.27-41.36-23.59v77.05l9.98,5.69-20.69,10.89L0,235.93V75.14S129.68,0,129.68,0ZM86.85,48.52l-44.02,24.48.47,64c.98,2.01,34.35,21.49,38.25,23.13,1.81.76,3.22,1.49,5.3,1.12V48.52Z"/>
  <path d="M149.85,311.07v-124.14l11.89-5.41,30.94,18.96v36.39l42.84-23.53,1.49-4.22-.31-109.73-44.03-25.2v62.07c0,.81-9.46,6-10.7,5.93-4.78-.3-24.91-16.99-32.13-18.06V0l128.49,73.47,1.49,4.22-.77,159.2-129.21,74.18Z"/>
</svg>